<?xml version="1.0" encoding="utf-8"?>
<!-- Generator: Adobe Illustrator 18.1.1, SVG Export Plug-In . SVG Version: 6.00 Build 0)  -->
<!DOCTYPE svg PUBLIC "-//W3C//DTD SVG 1.1//EN" "http://www.w3.org/Graphics/SVG/1.1/DTD/svg11.dtd">
<svg version="1.1" id="Layer_1" xmlns="http://www.w3.org/2000/svg" xmlns:xlink="http://www.w3.org/1999/xlink" x="0px" y="0px"
	 viewBox="0 0 560 960" enable-background="new 0 0 560 960" xml:space="preserve">
<g>
	<path fill="#73000F" d="M479.7,716.3h-400c-27.5,0-50-22.5-50-50v-400c0-27.5,22.5-50,50-50h400c27.5,0,50,22.5,50,50v400
		C529.7,693.8,507.2,716.3,479.7,716.3z"/>
	<g>
		<defs>
			<path id="SVGID_1_" d="M480,716.4H80c-27.5,0-50-22.5-50-50v-400c0-27.5,22.5-50,50-50h400c27.5,0,50,22.5,50,50v400
				C530,693.9,507.5,716.4,480,716.4z"/>
		</defs>
		<clipPath id="SVGID_2_">
			<use xlink:href="#SVGID_1_"  overflow="visible"/>
		</clipPath>
		<g clip-path="url(#SVGID_2_)">
			<g id="XMLID_1_">
				<g>
					<path fill="#FFFFFF" d="M531.4,592L531.4,592c0.7-16.8,4.1-29.2,7.2-37.5c0.6-1.5,2-5,5-12.1c8.7-21,9.6-22.2,11.6-27.6
						c4.3-11.6,5.4-20.5,7.2-35.3c1-8,2.4-19.8,1.7-35.3c-0.5-10.9-1-22.4-5.5-36.9c-5-16.3-12.5-27.9-17.6-35.8
						c-4.6-7.1-9-12.8-12.4-16.8l-0.3,0.2c-1.4,3.9-3.7,9.6-6.6,16.5c-2.9,6.7-4.6,10.1-7.2,16c-2.4,5.4-5.7,13-9.4,22.6
						c5.7,4,13.6,10.3,20.9,20.9c7.2,10.4,10.2,19.8,12.1,25.9c5.1,16.2,5.1,29.6,5,38c-0.1,12.5-1.9,22.1-4.4,35.3
						c-2.6,13.9-3.9,15.5-5.5,25.3C531.7,564,530.4,576.3,531.4,592z M482.8,451.5l-0.6,0.5c-1.8,3.4-4.3,8.4-7.2,14.4
						c-4,8.2-7.2,14.8-9.4,20c-5.1,12-7,21.8-8.9,31.1c-1.6,8.1-4.8,26.8-3.9,51.1c0.4,10,1,24,5.5,41.6
						c5.1,19.7,12.3,33.5,16.7,41.6c7.2,13.6,19.3,32.7,38.9,52.2c-5.5-8.6-12.4-21.2-17.8-35.5c-2.8-7.3-8-22.6-10.5-42.8
						c-3-23.7-0.9-42,0.6-53.3c2.3-18.3,3.5-28.2,8.9-41.1c3.5-8.3,6.7-13.2,8.3-23.3c0.7-4.7,2.2-14.8-1.7-26.1
						c-1.6-4.5-3.5-7.6-7.2-13.9C490,460.8,485.8,455.3,482.8,451.5z M402.9,295l0.3,0.2c12-0.3,22.5-0.4,30.8-0.4
						c21.1-0.1,27.2,0.2,30,0.4c12,0.8,21.7,2.4,29.5,3.9c0.2-7-1.4-12.2-2.6-15.2c-3-7.5-7.8-12-13.5-17.4
						c-2.9-2.8-6.5-6.1-12.1-9.1c-4.1-2.2-8.3-4.4-13.9-4.3c-1.6,0-4.6,0.2-9.6,2.2c-8.3,3.3-14,8.4-17.8,12.2
						C418.7,272.8,410.7,281.7,402.9,295z M313.6,360.3c-1.7,0.8-3.7,1.9-5.8,3.4c-5.3,3.5-8.5,7.1-9.8,8.5
						c-3.8,4-9.3,8.1-20.3,16.4c-20.5,15.3-42,22.3-42,22.3c-19.2,6.2-35,6.6-40.7,6.6c-12.7-0.1-23.2-2.1-29.5-3.3
						c-7.2-1.4-13.3-3.1-17.9-4.5l0.2-0.8c4.3-0.5,10.2-1.4,17-3.3c6.7-1.8,11.3-3.8,17.7-6.6c3.6-1.5,13.6-5.9,26.2-13.1
						c3.9-2.2,10.6-6,19-11.8c3-2.1,5.6-3.9,21.6-16.4c15.1-11.7,13.7-10.8,17.7-13.8c6.9-5.2,12.9-9.4,24.9-17.7
						c10.7-7.4,16.1-11.1,19.7-13.1c13-7.1,22.5-9.3,24.9-9.8c6.4-1.4,11.8-1.8,15.7-2h1.3c2-2.5,4.9-5.9,8.5-9.8
						c4.8-5.2,10.8-11.8,19.7-19c8.6-7.1,16.1-11.7,19.7-13.8c6-3.5,12.4-7.3,21.6-10.5c2.2-0.8,12-4.1,25.6-5.2
						c7.5-0.6,15-1.3,24.9,0.7c11.4,2.3,19.4,6.8,22.3,8.5c8.1,4.9,13.5,10.4,16.4,13.8c5.7,6.6,8.7,12.6,10.5,16.4
						c2.8,5.8,6.4,14.9,7.9,26.9l-1.4,0.6c2.8,0.9,7.6,2.8,12.5,5c21.5,9.6,34.3,24.5,39.9,31.3c7.1,8.5,11.3,15.7,15.1,22.3
						c7.8,13.5,11.9,24.6,14.5,31.5c3.3,8.9,7.6,20.7,10.3,36.8c3,17.6,2.5,31.4,2.2,39.9c-0.7,17.9-3.4,31.5-4.5,36.5
						c-4.1,19.2-10,33.1-14.2,43c-5.7,13.4-13.3,28.1-14.5,30.4c-1.2,2.3-1,1.8-2.8,5.3c-8.5,16.2-12.7,24.2-15.6,31.3
						c-2.4,5.7-6.8,16.4-8.9,31c-1.8,12.1-1.3,21.7-0.8,26.5c0.5,5.1,1.1,11.8,3.9,20.1c1.8,5.3,3.7,10.7,8.4,16.5
						c3.6,4.5,7.5,7.3,10,9.2c4.5,3.3,8.7,5.4,11.4,6.7c5.7,2.6,10.3,3.6,14,4.5c5.7,1.3,10.1,1.7,13.1,2c2.2,0.2,5.6,0.4,18.1,0.3
						c3.6,0,8.5-0.1,14.3-0.3c-4.2,7.8-11.5,18.5-23.3,27.9c-11.9,9.5-23.2,13.5-31,16.2c-16.4,5.7-29.9,6.3-34.3,6.4
						c-16.1,0.4-28.2-2.8-34.3-4.5c-14.4-3.9-24.8-9.6-31.3-13.1c-7.9-4.3-14.7-8.9-15.1-9.2c-7.3-5-7.9-6.3-13.1-9.5
						c-3-1.9-9.9-6.1-19.5-8.7c-10-2.7-18-2.3-23.4-2c-2.8,0.2-12.1,0.8-23.7,4.8c-12,4.1-20,9.4-26.8,14
						c-11.3,7.6-18.9,15-23.7,19.8c-5.1,5.1-9.1,9.7-12,13.1c0.7-10.3,2.8-18.7,4.7-24.5c1.8-5.5,4.9-14.9,12.3-25.1
						c5.3-7.3,10.5-12,13.7-14.8c7.8-6.9,14.7-10.8,20.4-14c6.2-3.5,11.3-6.2,18.7-8.4c1.1-0.3,6.7-1.9,14.3-2.6
						c6.2-0.6,11.5-0.4,15.6,0l0-0.2c-2.1-2.6-5.4-6.4-10.1-10.3c-10.6-8.9-21.1-12.2-35.1-16.5c-8.8-2.7-19-5.7-33.2-7
						c-7.1-0.6-19.7-1.6-35.7,1.4c-18.5,3.5-31.2,10.4-34.6,12.3c-3.9,2.2-11.3,6.7-19.5,14c-6.3,5.6-11.5,11-15,15.6
						c3-11.3,9.3-28.8,22.5-44.9c7-8.6,14.3-14.8,16.7-16.8c8.2-6.8,15.3-10.8,20.1-13.4c5.7-3.2,13.5-7.4,24.5-10.9
						c9.2-2.9,16.4-3.8,23.4-4.8c8-1,14.8-1.9,24-1.4c11.9,0.7,20.3,3.3,22,3.9c6,1.9,10.8,4.3,14.2,6.1
						c-7.6-12.1-16.9-22.5-23.6-30.1c-10.3-11.8-20-20.5-27.1-26.2c-7.8-6.4-15.1-12.3-26.2-18.1c-6.5-3.4-12.8-6.6-22-8.6
						c-14.4-3.2-25.7-1.1-28.2-0.6c-9.3,1.9-15.6,5.3-17,6.1c-5,2.8-8.2,5.7-10.6,7.8c-8.4,7.5-13,15.1-15.9,20.1
						c-4.8,8-7.2,14.8-8.7,18.7c-0.5,1.4-1,2.7-1.4,4l-2.7-0.7c0.8-2.4,1.6-5.2,2.6-8.4c3.5-11.6,3.4-12,5-16.2
						c3.5-9.1,7.2-15.5,10-20.4c4.9-8.4,10.2-17.5,19.8-27.3c9.9-10.2,19.1-15.9,21.5-17.3c5.6-3.4,13-7.7,23.7-10.1
						c9.8-2.2,17.4-1.6,19.2-1.4c7.7,0.7,13.4,2.7,16.8,3.9c2.7,1,7.7,3,13.4,6.4c7.9,4.8,13,9.9,15.1,12c4.1,4.3,6.6,7.9,10,13.1
						c4.8,7.2,8,13.3,9.5,16.5c2.9,6,5.1,11.6,6.8,16.8l0.2-0.1c-0.2-4-0.4-9.6-0.3-16.5c0.1-5.2,0.3-9.4,1.4-22.1
						c1.3-15.8,2-23.6,2.5-27.1c1-6.3,2.5-12.3,5.6-24.3c2.2-8.8,4-15.8,7-25.4c3.7-11.9,7.2-21.2,9.5-27.3c2-5.2,3.7-9.6,5-12.8
						c-17-12.2-29.9-21.6-37.4-26.2c-1.4-0.9-4.8-2.9-8.1-6.7c-4.5-5.1-6.4-10.5-7.3-12.8c-0.9-2.7-2-6.7-2.2-11.7l0.7-0.7
						c5.3,4.9,10.2,8.3,13.8,10.5c4.5,2.7,8.2,4.3,15.6,7.5c6.5,2.8,9.8,4.2,13.4,5c5.1,1.1,7.1,0.7,12.8,2c4.5,1,8,1.8,10.3,2.8
						c5.7-12.9,10.4-22.6,13.7-29.3c1.5-3,4.5-9.1,9.2-18.7c2.2-4.6,4.1-8.3,5.3-10.9c-9.8-2.9-18.2-4.9-24-5.3
						c-6.8-0.5-12.4-0.3-23.4,0.3c-6.2,0.3-12.8,0.6-21.5,1.7c-9.2,1.1-12.4,2-22.3,3.1c-5.9,0.6-10.8,0.9-14,1.1h-0.3
						c-1.9,3-4.5,7.4-7.8,12.5c-7.1,11.3-14.8,23.6-23.7,36.6c-11.8,17.2-18,26.2-28.5,37.7c-11.7,12.8-19.7,18.8-22.3,20.6
						c-9.5,6.9-18.5,11.4-25.1,14.2l-0.5-0.9c-3.5,1.8-7,3.5-10.5,5.3l-0.4-0.8c3.9-2.1,9.4-5.6,14.8-11
						c6.7-6.8,10.2-13.4,12.5-17.7c3.6-7,5.5-13.1,7.9-21c2.1-6.8,1.4-6,3.3-11.8c2.1-6.4,3.5-9.5,7.9-20.3c1.2-2.9,2.8-7,4.6-11.8
						L313.6,360.3z"/>
					<path fill="#FFFFFF" d="M244.8,605.1l2.7,0.7c-2.3,7.1-3.6,13.1-3.9,14.7c-0.7,3.2-0.9,5-2,9.5c-1.5,6.6-2.3,9.9-3.3,12.6
						c-0.9,2.3-3.8,9.1-10.9,14.5c-2.5,1.9-7.5,5.7-14.8,6.1c-5.2,0.3-9-1.2-10.1-1.7c-4.1-1.7-6.6-4.2-8.1-5.9c-1-1-4.6-5-6.7-11.5
						c-2-6.2-1.6-11.6-1.1-14.5c1.9,1.7,5.2,3.8,9.4,5.6c6.5,2.8,12.2,2.8,15.6,2.8c4,0,8.1-0.1,12.6-2c6.5-2.8,10.1-7.8,12.8-12
						C239.1,621.2,240.7,618.1,244.8,605.1z"/>
				</g>
				<g>
				</g>
			</g>
		</g>
	</g>
</g>
</svg>
